<svg xmlns="http://www.w3.org/2000/svg" viewBox="0 0 1500 1500"><defs><style>.cls-1{fill:#f62e53;}.cls-2{fill:#fff;}</style></defs><g id="Layer_2" data-name="Layer 2"><g id="Layer_1-2" data-name="Layer 1"><rect class="cls-1" width="1500" height="1500"/><path class="cls-2" d="M1202.33,473.59a50.46,50.46,0,0,0-53.41-47.15c-58.44,3.63-114.74,14.39-167.35,32-73.84,24.67-137.94,62-190.86,111.1q-3.18-4.34-6.42-8.49c-50.47-64.77-113.45-101.53-182.12-106.3-41.36-2.87-82.78,5.84-123.12,25.9-31.32,15.57-53.48,33.88-62.95,41.69a302.21,302.21,0,0,0-76.6,96c-15.46,30.18-26.82,64-33.77,100.46-12,62.81-7.64,116.8-6.22,134.55,5.48,68.42,26.54,134.2,62.59,195.51a50.34,50.34,0,0,0,68.95,17.89,50.37,50.37,0,0,0,17.9-69c-28.27-48.08-44.76-99.38-49-152.49C391.27,737,419.8,649.92,480.26,600c14.57-12,58.91-48.65,114.93-44.76,61,4.24,104,55.85,127,92.48-32.51,44.91-60.15,95.63-78.42,144.07-14.41,38.22-22.35,73.15-23.58,103.81-1.67,41.5,8.88,74.58,31.35,98.33,17.34,18.33,40.67,29.73,69.35,33.9.43.06.86.12,1.26.16,5.88.71,36.85,3.41,69.89-12.77,20.76-10.16,38.25-29,52-56.12,11.12-22,17.68-45.39,21.22-61.16,12.13-54,11.68-114.17-1.27-169.43a431.91,431.91,0,0,0-22.13-67.9c99.92-105.46,239.09-129,313.36-133.6A50.43,50.43,0,0,0,1202.33,473.59ZM766.92,875.85c-6.89,30.67-16.7,45.66-20.34,49.4a34.38,34.38,0,0,1-13,2.57h0c-7-1.26-8.88-3.13-8.89-3.15-3.51-3.8-11.54-31.46,13.31-97.35a489.15,489.15,0,0,1,30.21-64.51C775.26,800,774.84,840.58,766.92,875.85Z"/></g></g></svg>