<svg xmlns="http://www.w3.org/2000/svg" viewBox="0 0 1500 1500"><defs><style>.cls-1{fill:#f62e53;}.cls-2{fill:#fff;}</style></defs><g id="Layer_2" data-name="Layer 2"><g id="Layer_1-2" data-name="Layer 1"><rect class="cls-1" width="1500" height="1500"/><path class="cls-2" d="M1201.52,762.77a7.52,7.52,0,0,0-9.11-5.43c-4.39,1.11-19.63,4.08-31.67-4.51a30.46,30.46,0,0,1-10.34-13.14,111.46,111.46,0,0,0,10.69-8.83c31.68-25.53,45.71-59.35,34.14-82.28-3.66-7.26-9.86-13.2-18.39-17.63-.18-.09-.35-.18-.54-.26a2.23,2.23,0,0,0-.34-.14c-12.46-4.84-37.29-11.51-63.55-1.83-15.85,5.84-29.73,16.7-40.09,31.15.25-1.57.48-3.14.7-4.7l36.23-109.28a7.5,7.5,0,0,0-14.23-4.73l-34,102.11c-17.38-4.6-56.26-10.83-89.41,12.74-16.3,11.59-30.53,30.27-38.05,50-8.19,21.42-7.55,41.29,1.75,54.51a40.69,40.69,0,0,0,17.48,13.82,33.14,33.14,0,0,1-24.94-6.14c-9.78-7.36-12.25-18.12-12.87-23l41.64-99.6a7.5,7.5,0,0,0-12.87-7.45c-2.06,2.68-4.08,5.43-6,8.2a64.56,64.56,0,0,0-18.76-6.11c-30.91-5-55.29,14.89-62,21.09a88,88,0,0,0-20.16,28.41c.66-2.75,1.19-5.45,1.57-8.06,1.95-13.79-.22-24.77-6.46-32.62h0c-12.74-16-38.37-13.23-43.38-12.5-57.92,8.44-93.26,101.31-102.88,161.67-1,6.05-1.8,12.67-2.49,19.71a94.62,94.62,0,0,1-21.52.27c-8.33-.86-18.69-1.94-27.84-9-.78-.61-1.55-1.25-2.3-1.92a186,186,0,0,0,45.85-38.09c22.27-25.62,35-54.83,35.9-82.24.29-8.89,1-29.71-13.45-39.49-12.61-8.55-28.61-3-34.63-.87-34.53,12-54.31,50.16-60.76,79.14C601.2,740,595.49,775.26,609,802a145.35,145.35,0,0,1-16.51,6.29C577.38,813,572.41,811.73,571,811c-16.37-8.7-14.16-62.08,5.63-136l10.79-43.45c36.15-16.56,72.05-21.81,95.9-23.3a7.5,7.5,0,1,0-.93-15c-22.29,1.39-55.69,6-90.43,20l15.59-62.8a7.51,7.51,0,0,0-5.47-9.08,7.49,7.49,0,0,0-9.09,5.47L574.55,621a219.27,219.27,0,0,0-63.2,46.49q-1.67,1.77-3.33,3.63A176.47,176.47,0,0,0,494.56,651c-21.09-27.07-47-42.4-74.92-44.34-26-1.81-51.95,7.77-77,28.47-37,30.54-54.6,81.57-49.62,143.7A200.34,200.34,0,0,0,320.61,865a7.53,7.53,0,0,0,6.47,3.7,7.51,7.51,0,0,0,6.46-11.3A185.51,185.51,0,0,1,308,777.66c-4.57-57.11,11.13-103.61,44.22-130.93,22-18.17,44.34-26.61,66.42-25.08,40.92,2.85,66.86,39.29,79.08,61.81-17.4,22.18-32.16,48.11-41.62,73.22-13.72,36.38-13.63,64.49.25,79.16,5.64,6,13.53,9.72,23.44,11.16l.17,0A47,47,0,0,0,504,842.5c11.41-5.58,20.9-21.87,26-44.68a167.3,167.3,0,0,0-.57-73.36,195.32,195.32,0,0,0-14-39.12c2.25-2.63,4.52-5.18,6.78-7.6a202.07,202.07,0,0,1,47.4-37.18l-7.6,30.63c-7.58,28.32-12.9,54.87-15.38,76.79-4.82,42.57.82,67.51,17.23,76.24,4.79,2.54,12.87,4.66,33-1.62a161.43,161.43,0,0,0,20.6-8,53.61,53.61,0,0,0,7,6.51c12.51,9.6,25.75,11,35.42,12a108.5,108.5,0,0,0,21.85.05c-2.17,34.2-1.38,75.84,2.36,123.85v.14a7.54,7.54,0,0,0,7.47,6.87l.6,0a7.52,7.52,0,0,0,6.88-8.05l0-.22c-3.81-49-4.52-91.06-2.1-125.08,27.35-6.36,48.21-21.18,56.16-26.84,33-23.46,63-61.37,77.2-95.17-.38,1.73-.73,3.47-1,5.23-3.34,20.49.39,39.73,10.25,52.79,6.64,8.81,14.43,14,23.15,15.56a32,32,0,0,0,5.36.46c12.6,0,25.6-7.42,36.2-20.51a46.25,46.25,0,0,0,14.4,18,47.55,47.55,0,0,0,28.83,9.51h0a50.78,50.78,0,0,0,20.52-4.34,126.46,126.46,0,0,0,36-14.44A124.89,124.89,0,0,0,1023.08,757l-3,9.07a7.5,7.5,0,0,0,14.23,4.75L1050,723.74c1.62-2.79,3.19-5.67,4.68-8.63a60.33,60.33,0,0,0,1.09,9.18c1.08,5.45,4,19.94,16.66,28.93s27.12,6.89,34.11,5.91c10.08-1.4,20.55-5.16,31.18-11.18a45.22,45.22,0,0,0,14.34,17.1c8.14,5.79,17.82,8.73,28.79,8.73a62.89,62.89,0,0,0,15.27-1.9,7.5,7.5,0,0,0,5.43-9.11Zm-503,52c.56-5,1.19-9.79,1.9-14.22,8.58-53.84,40.67-142,90.24-149.19a52.22,52.22,0,0,1,7.4-.51c4.85,0,16.7.73,22.07,7.49,3.52,4.44,4.68,11.77,3.34,21.19-4.33,30.59-35,80.86-78.9,112C737.26,796.73,720.63,808.55,698.51,814.74Zm-.3-128.3c-1.27,39.44-32.31,83.82-75.79,108.7-11.93-23.87-5-59.15-3.41-66.17,5.61-25.22,22.35-58.23,51-68.24,2.68-.93,8.25-2.88,13.6-2.88a13.46,13.46,0,0,1,7.67,2C698.9,665,698.42,680,698.21,686.44ZM497.42,829a32.18,32.18,0,0,1-15.68,3.1c-6.4-1-11.29-3.17-14.54-6.6-9.44-10-8.35-33.74,2.89-63.56A269.61,269.61,0,0,1,505,698.56a176.08,176.08,0,0,1,9.84,29.32C526.3,776.71,510.39,822.69,497.42,829ZM686.75,956.88Zm369.48-299.36L1040.41,705c-18.33,38-48.19,62-72.65,58.14-4.15-.64-14.42-3-20.22-11.29-6.31-9-6.29-24.19,0-40.74,6.56-17.14,18.47-32.76,32.68-42.87,13.38-9.51,29.47-14.33,47.84-14.33A114.36,114.36,0,0,1,1056.23,657.52Zm95.21,61.86c-.19.15-.37.31-.55.48,0,0-1.66,1.61-4.55,4-.13-.89-.24-1.75-.35-2.56h0c-4.27-32.07,15.4-59.67,28.57-74.16a23.42,23.42,0,0,1,7.28,8.23C1190.09,671.69,1177.31,698.63,1151.44,719.38Zm-20.32,3.87c.38,2.86.84,6.32,1.67,10.17-9.85,6-19.38,9.61-28.35,10.86-5.85.81-15.65,2.18-23.37-3.3s-9.78-15.4-10.62-19.61c-5.34-26.92,13.69-66.24,47.15-78.57a66.43,66.43,0,0,1,23.11-4,79.86,79.86,0,0,1,19.13,2.39C1146,657.61,1126.4,687.8,1131.12,723.25ZM929.45,659A217.32,217.32,0,0,0,900,741.64c-9.45,17.39-23.33,27.73-34.65,25.75-7.29-1.27-12.15-7.7-13.74-9.82-7.4-9.8-10.1-24.87-7.42-41.34,2.8-17.12,11.12-33.14,22.84-43.93,4.56-4.21,21.08-17.92,41.95-17.92a47.52,47.52,0,0,1,7.54.6A49.27,49.27,0,0,1,929.45,659Z"/><path class="cls-2" d="M921.22,835.09v26.09h-3.37V835.09Z"/><path class="cls-2" d="M932.91,835.44a48.09,48.09,0,0,1,7.16-.55c4.84,0,8.29,1.13,10.57,3.26s3.68,5.14,3.68,9.36-1.32,7.75-3.76,10.15-6.46,3.75-11.53,3.75a52.89,52.89,0,0,1-6.12-.31Zm3.37,23.07a21.85,21.85,0,0,0,3.4.19c7.2,0,11.11-4,11.11-11.07,0-6.15-3.44-10.06-10.56-10.06a19.47,19.47,0,0,0-4,.34Z"/><path class="cls-2" d="M978,849H967.86v9.4h11.31v2.83H964.5V835.09h14.09v2.82H967.86v8.25H978Z"/><path class="cls-2" d="M993.57,853l-2.71,8.21h-3.49l8.87-26.09h4.06l8.91,26.09h-3.6l-2.79-8.21Zm8.55-2.63-2.55-7.51c-.58-1.7-1-3.25-1.36-4.76h-.07c-.39,1.55-.82,3.13-1.32,4.72l-2.55,7.55Z"/><path class="cls-2" d="M1018.38,857.08a12,12,0,0,0,6,1.7c3.45,0,5.46-1.82,5.46-4.45,0-2.44-1.4-3.84-4.92-5.19-4.26-1.51-6.89-3.72-6.89-7.39,0-4.07,3.37-7.09,8.44-7.09a11.84,11.84,0,0,1,5.77,1.28l-.93,2.75a10.3,10.3,0,0,0-4.95-1.24c-3.57,0-4.92,2.13-4.92,3.91,0,2.44,1.59,3.64,5.19,5,4.41,1.7,6.65,3.83,6.65,7.67,0,4-3,7.51-9.13,7.51a13.46,13.46,0,0,1-6.66-1.67Z"/><path class="cls-2" d="M1057.75,835.44a34.83,34.83,0,0,1,6.46-.55c3.6,0,5.93.66,7.55,2.13a6.5,6.5,0,0,1,2.06,5,6.86,6.86,0,0,1-4.92,6.66v.11c2,.7,3.21,2.56,3.83,5.27a41.68,41.68,0,0,0,2,7.16h-3.48a33.16,33.16,0,0,1-1.74-6.23c-.78-3.6-2.17-5-5.23-5.07h-3.17v11.3h-3.37Zm3.37,11.88h3.44c3.6,0,5.89-2,5.89-5,0-3.37-2.44-4.84-6-4.88a13.55,13.55,0,0,0-3.33.31Z"/><path class="cls-2" d="M1087.75,835.09v15.44c0,5.85,2.59,8.33,6.08,8.33,3.87,0,6.35-2.56,6.35-8.33V835.09h3.4V850.3c0,8-4.22,11.31-9.87,11.31-5.34,0-9.37-3.06-9.37-11.15V835.09Z"/><path class="cls-2" d="M1115.23,835.09h3.37v23.26h11.15v2.83h-14.52Z"/><path class="cls-2" d="M1152.82,849h-10.14v9.4H1154v2.83h-14.67V835.09h14.09v2.82h-10.72v8.25h10.14Z"/><path class="cls-2" d="M1163.08,859.17a2.29,2.29,0,0,1,2.32-2.44,2.44,2.44,0,0,1,0,4.88A2.28,2.28,0,0,1,1163.08,859.17Z"/><path class="cls-2" d="M1176.9,859.17a2.29,2.29,0,0,1,2.32-2.44,2.44,2.44,0,0,1,0,4.88A2.28,2.28,0,0,1,1176.9,859.17Z"/><path class="cls-2" d="M1190.72,859.17a2.29,2.29,0,0,1,2.32-2.44,2.44,2.44,0,0,1,0,4.88A2.28,2.28,0,0,1,1190.72,859.17Z"/><path class="cls-2" d="M1185.72,595a22.1,22.1,0,1,1,22.1-22.1A22.13,22.13,0,0,1,1185.72,595Zm0-41.2a19.1,19.1,0,1,0,19.1,19.1A19.12,19.12,0,0,0,1185.72,553.78Z"/><path class="cls-2" d="M1179.1,560a34.2,34.2,0,0,1,6.31-.53c3.51,0,5.78.64,7.37,2.07a6.38,6.38,0,0,1,2,4.84,6.7,6.7,0,0,1-4.8,6.5V573c2,.68,3.14,2.5,3.74,5.14a40.14,40.14,0,0,0,2,7h-3.4a32.08,32.08,0,0,1-1.7-6.08c-.76-3.52-2.12-4.84-5.11-4.95h-3.09v11h-3.29Zm3.29,11.59h3.36c3.51,0,5.74-1.92,5.74-4.83,0-3.29-2.38-4.72-5.85-4.76a13.62,13.62,0,0,0-3.25.3Z"/></g></g></svg>