<svg xmlns="http://www.w3.org/2000/svg" viewBox="0 0 987.93 706.76"><defs><style>.cls-1{fill:#f62e53;}</style></defs><g id="Layer_2" data-name="Layer 2"><g id="Layer_1-2" data-name="Layer 1"><path class="cls-1" d="M987.82,51.59A55.08,55.08,0,0,0,929.52.11C865.71,4.07,804.24,15.82,746.8,35,666.18,61.94,596.19,102.7,538.41,156.3q-3.46-4.73-7-9.26C476.3,76.32,407.54,36.19,332.56,31c-45.16-3.14-90.38,6.37-134.42,28.27-34.2,17-58.4,37-68.73,45.52C95,133.23,66.82,168.49,45.77,209.57c-16.87,33-29.28,69.86-36.86,109.69C-4.16,387.84.56,446.78,2.11,466.16c6,74.7,29,146.52,68.33,213.47a55,55,0,0,0,75.29,19.53,55,55,0,0,0,19.54-75.29c-30.86-52.49-48.87-108.5-53.51-166.49-9.46-118.16,21.68-213.27,87.7-267.79,15.91-13.14,64.32-53.13,125.48-48.88,66.64,4.63,113.53,61,138.66,101C428.11,290.72,397.93,346.1,378,399c-15.73,41.73-24.4,79.87-25.74,113.35-1.82,45.31,9.69,81.43,34.23,107.36,18.93,20,44.4,32.45,75.71,37l1.38.18c6.42.78,40.23,3.72,76.3-13.94,22.68-11.09,41.76-31.71,56.73-61.28,12.15-24,19.31-49.55,23.18-66.77,13.24-59,12.74-124.66-1.39-185a471,471,0,0,0-24.17-74.13c109.11-115.14,261-140.82,342.13-145.87A55.05,55.05,0,0,0,987.82,51.59ZM512.44,490.78c-7.52,33.49-18.23,49.86-22.21,53.94a37.64,37.64,0,0,1-14.14,2.81h0c-7.67-1.38-9.69-3.42-9.71-3.44-3.83-4.15-12.6-34.35,14.54-106.29a533.36,533.36,0,0,1,33-70.43C521.54,408,521.09,452.27,512.44,490.78Z"/></g></g></svg>