<svg xmlns="http://www.w3.org/2000/svg" viewBox="0 0 915.64 427.94"><defs><style>.cls-1{fill:#f62e53;}</style></defs><g id="Layer_2" data-name="Layer 2"><g id="Layer_1-2" data-name="Layer 1"><path class="cls-1" d="M909.34,226.74a7.51,7.51,0,0,0-9.11-5.42c-4.39,1.11-19.63,4.07-31.67-4.52a30.49,30.49,0,0,1-10.34-13.13,112.55,112.55,0,0,0,10.69-8.84c31.68-25.53,45.71-59.35,34.14-82.28-3.66-7.26-9.86-13.19-18.4-17.63-.17-.09-.34-.18-.53-.26l-.34-.14c-12.47-4.84-37.29-11.51-63.55-1.83a86.46,86.46,0,0,0-40.09,31.15c.25-1.57.48-3.14.7-4.7L817.07,9.86A7.5,7.5,0,0,0,806.6.8a7.38,7.38,0,0,0-3.76,4.33l-34,102.11c-17.38-4.6-56.26-10.83-89.41,12.74-16.3,11.59-30.53,30.27-38,50-8.19,21.42-7.55,41.29,1.75,54.51a40.69,40.69,0,0,0,17.48,13.82,33.1,33.1,0,0,1-24.94-6.14c-9.78-7.35-12.25-18.11-12.87-23L664.4,109.5a7.5,7.5,0,0,0-12.87-7.45c-2.06,2.68-4.08,5.43-6,8.2a64.86,64.86,0,0,0-18.76-6.11c-30.91-5-55.29,14.89-62,21.09a88.19,88.19,0,0,0-20.16,28.41c.66-2.75,1.19-5.44,1.57-8.06,2-13.79-.22-24.77-6.46-32.62h0c-12.74-16-38.37-13.23-43.38-12.5C438.38,108.91,403,201.77,393.42,262.13c-1,6.05-1.8,12.67-2.49,19.72a94,94,0,0,1-21.52.26c-8.33-.86-18.69-1.94-27.84-9-.78-.6-1.55-1.25-2.3-1.92a185.79,185.79,0,0,0,45.85-38.09c22.27-25.62,35-54.83,35.9-82.24.29-8.89,1-29.71-13.45-39.49-12.61-8.55-28.61-3-34.63-.87-34.53,12-54.31,50.16-60.76,79.15-3.16,14.23-8.87,49.54,4.66,76.27a145.35,145.35,0,0,1-16.51,6.29c-15.13,4.71-20.1,3.45-21.53,2.69-16.37-8.7-14.16-62.08,5.63-136l10.79-43.45c36.15-16.56,72-21.81,95.9-23.29a7.5,7.5,0,1,0-.93-15c-22.29,1.39-55.69,6-90.44,20l15.6-62.8A7.5,7.5,0,0,0,304.2,6.16a7.41,7.41,0,0,0-3.41,4.62L282.37,85a219.27,219.27,0,0,0-63.2,46.49q-1.66,1.77-3.33,3.63A176.47,176.47,0,0,0,202.38,115c-21.09-27.07-47-42.4-74.92-44.34-26-1.81-51.95,7.77-77,28.47-37,30.54-54.6,81.57-49.62,143.7A200.34,200.34,0,0,0,28.43,329a7.5,7.5,0,1,0,12.93-7.6,185.37,185.37,0,0,1-25.58-79.72C11.21,184.53,26.91,138,60,110.7c22-18.17,44.34-26.61,66.42-25.07,40.92,2.84,66.86,39.28,79.08,61.8-17.4,22.18-32.16,48.12-41.62,73.22-13.72,36.38-13.63,64.49.25,79.16,5.64,6,13.53,9.72,23.44,11.16l.17,0a47,47,0,0,0,24.1-4.53c11.41-5.58,20.9-21.87,26-44.68a167.3,167.3,0,0,0-.57-73.36,195.32,195.32,0,0,0-14-39.12c2.25-2.63,4.52-5.18,6.78-7.59a201.84,201.84,0,0,1,47.4-37.19l-7.6,30.63C262.33,163.48,257,190,254.53,212c-4.82,42.57.82,67.51,17.23,76.24,4.79,2.54,12.87,4.66,33-1.62a161.43,161.43,0,0,0,20.6-8,53.61,53.61,0,0,0,7.05,6.51c12.51,9.6,25.75,11,35.42,12a108.5,108.5,0,0,0,21.85.05c-2.17,34.2-1.38,75.84,2.36,123.85v.14a7.54,7.54,0,0,0,7.47,6.87l.6,0a7.52,7.52,0,0,0,6.88-8.05l0-.22c-3.81-49-4.52-91-2.1-125.08,27.35-6.36,48.21-21.18,56.16-26.84,33-23.46,63.05-61.36,77.2-95.17-.38,1.73-.74,3.48-1,5.23-3.34,20.49.39,39.73,10.24,52.79,6.65,8.81,14.44,14,23.15,15.56a31.07,31.07,0,0,0,5.37.46c12.59,0,25.6-7.42,36.2-20.51a46.31,46.31,0,0,0,14.39,18,47.6,47.6,0,0,0,28.84,9.51h0A50.79,50.79,0,0,0,676,249.28a126.46,126.46,0,0,0,36-14.44A124.21,124.21,0,0,0,730.9,221l-3,9.08a7.5,7.5,0,1,0,14.23,4.74l15.69-47.06c1.62-2.78,3.19-5.66,4.68-8.63a60.33,60.33,0,0,0,1.09,9.18c1.08,5.45,4,19.94,16.66,28.94s27.12,6.88,34.11,5.9c10.08-1.4,20.55-5.16,31.18-11.18A45.14,45.14,0,0,0,859.85,229c8.13,5.8,17.82,8.74,28.79,8.74a62.88,62.88,0,0,0,15.27-1.91,7.5,7.5,0,0,0,5.43-9.11Zm-503,52c.56-5,1.19-9.78,1.9-14.21,8.58-53.85,40.67-142,90.24-149.2a52.22,52.22,0,0,1,7.4-.51c4.85,0,16.7.73,22.07,7.49,3.52,4.45,4.68,11.77,3.34,21.19-4.34,30.59-35,80.86-78.9,112C445.08,260.7,428.44,272.52,406.33,278.71Zm-.3-128.3c-1.27,39.44-32.31,83.82-75.79,108.7-11.93-23.87-5-59.15-3.41-66.17,5.61-25.22,22.35-58.23,51.05-68.24,2.68-.93,8.25-2.87,13.6-2.87a13.46,13.46,0,0,1,7.67,2C406.72,129,406.24,144,406,150.41ZM205.24,293a32.39,32.39,0,0,1-15.68,3.11c-6.4-1-11.29-3.18-14.54-6.61-9.44-10-8.36-33.73,2.89-63.56a269.36,269.36,0,0,1,34.94-63.4,175.68,175.68,0,0,1,9.84,29.31C234.12,240.68,218.21,286.66,205.24,293ZM394.57,420.86ZM764.05,121.5,748.23,169c-18.34,38-48.19,61.95-72.66,58.14-4.14-.64-14.41-3-20.21-11.29-6.31-9-6.29-24.19,0-40.74,6.56-17.14,18.47-32.76,32.68-42.87,13.38-9.51,29.47-14.33,47.84-14.33A113.82,113.82,0,0,1,764.05,121.5Zm95.21,61.85c-.19.15-.37.31-.55.48,0,0-1.66,1.61-4.55,4-.13-.89-.24-1.75-.35-2.56h0c-4.27-32.07,15.4-59.67,28.57-74.16a23.42,23.42,0,0,1,7.28,8.23C897.91,135.67,885.13,162.6,859.26,183.35Zm-20.32,3.88c.38,2.85.84,6.31,1.67,10.16-9.85,6-19.38,9.61-28.35,10.86-5.85.81-15.65,2.18-23.37-3.29s-9.78-15.41-10.62-19.62c-5.34-26.92,13.69-66.24,47.15-78.57a66.39,66.39,0,0,1,23.11-4,79.86,79.86,0,0,1,19.13,2.39C853.78,121.58,834.22,151.77,838.94,187.23Zm-201.67-64.3a217.22,217.22,0,0,0-29.41,82.68c-9.45,17.39-23.33,27.73-34.65,25.75-7.29-1.26-12.15-7.7-13.74-9.81-7.4-9.81-10.1-24.88-7.42-41.34,2.8-17.13,11.12-33.15,22.84-43.94,4.56-4.21,21.08-17.92,42-17.92a47.52,47.52,0,0,1,7.54.6A49.29,49.29,0,0,1,637.27,122.93Z"/><path class="cls-1" d="M629,299.06v26.09h-3.37V299.06Z"/><path class="cls-1" d="M640.73,299.41a48.19,48.19,0,0,1,7.16-.54c4.84,0,8.29,1.12,10.57,3.25s3.68,5.15,3.68,9.37-1.32,7.74-3.76,10.14-6.46,3.75-11.53,3.75a52.89,52.89,0,0,1-6.12-.31Zm3.37,23.07a21.85,21.85,0,0,0,3.4.19c7.2,0,11.11-4,11.11-11.07,0-6.15-3.44-10.06-10.56-10.06a18.63,18.63,0,0,0-3.95.35Z"/><path class="cls-1" d="M685.83,312.92H675.68v9.4H687v2.83H672.32V299.06h14.09v2.83H675.68v8.24h10.15Z"/><path class="cls-1" d="M701.39,316.94l-2.71,8.21h-3.49l8.87-26.09h4.06L717,325.15h-3.6l-2.79-8.21Zm8.55-2.63-2.55-7.51c-.58-1.7-1-3.25-1.36-4.76H706c-.39,1.55-.82,3.14-1.32,4.72l-2.56,7.55Z"/><path class="cls-1" d="M726.2,321.05a11.94,11.94,0,0,0,6,1.7c3.45,0,5.46-1.82,5.46-4.45,0-2.44-1.4-3.83-4.92-5.19-4.26-1.51-6.89-3.72-6.89-7.39,0-4.07,3.37-7.09,8.44-7.09a11.84,11.84,0,0,1,5.77,1.28l-.93,2.75a10.31,10.31,0,0,0-5-1.24c-3.56,0-4.91,2.13-4.91,3.91,0,2.44,1.59,3.64,5.19,5,4.41,1.71,6.65,3.84,6.65,7.67,0,4-3,7.51-9.13,7.51a13.46,13.46,0,0,1-6.66-1.67Z"/><path class="cls-1" d="M765.57,299.41a34.9,34.9,0,0,1,6.46-.54c3.6,0,5.93.65,7.55,2.12a6.51,6.51,0,0,1,2,5,6.85,6.85,0,0,1-4.91,6.66v.11c2,.7,3.21,2.56,3.83,5.27a41.68,41.68,0,0,0,2,7.16h-3.48a32.91,32.91,0,0,1-1.74-6.23c-.78-3.6-2.17-5-5.23-5.07h-3.17v11.3h-3.37Zm3.37,11.88h3.44c3.6,0,5.89-2,5.89-5,0-3.37-2.44-4.84-6-4.88a13.55,13.55,0,0,0-3.33.31Z"/><path class="cls-1" d="M795.57,299.06v15.45c0,5.84,2.59,8.32,6.08,8.32,3.87,0,6.35-2.56,6.35-8.32V299.06h3.4v15.21c0,8-4.22,11.31-9.87,11.31-5.34,0-9.37-3.06-9.37-11.15V299.06Z"/><path class="cls-1" d="M823.05,299.06h3.37v23.26h11.15v2.83H823.05Z"/><path class="cls-1" d="M860.64,312.92H850.5v9.4h11.3v2.83H847.13V299.06h14.09v2.83H850.5v8.24h10.14Z"/><path class="cls-1" d="M870.9,323.14a2.29,2.29,0,0,1,2.32-2.44,2.44,2.44,0,1,1-2.32,2.44Z"/><path class="cls-1" d="M884.72,323.14A2.29,2.29,0,0,1,887,320.7a2.44,2.44,0,0,1,0,4.88A2.28,2.28,0,0,1,884.72,323.14Z"/><path class="cls-1" d="M898.54,323.14a2.29,2.29,0,0,1,2.32-2.44,2.44,2.44,0,1,1-2.32,2.44Z"/><path class="cls-1" d="M893.54,59a22.1,22.1,0,1,1,22.1-22.1A22.12,22.12,0,0,1,893.54,59Zm0-41.2a19.1,19.1,0,1,0,19.1,19.1A19.12,19.12,0,0,0,893.54,17.75Z"/><path class="cls-1" d="M886.92,24a34.2,34.2,0,0,1,6.31-.53c3.51,0,5.78.64,7.37,2.08a6.34,6.34,0,0,1,2,4.83,6.7,6.7,0,0,1-4.8,6.5V37c2,.68,3.14,2.5,3.74,5.14a40.14,40.14,0,0,0,2,7h-3.4a32.08,32.08,0,0,1-1.7-6.08c-.76-3.51-2.12-4.84-5.11-5h-3.09v11h-3.29Zm3.29,11.6h3.36c3.51,0,5.74-1.93,5.74-4.84,0-3.29-2.38-4.72-5.85-4.76a13.62,13.62,0,0,0-3.25.3Z"/></g></g></svg>