<svg xmlns="http://www.w3.org/2000/svg" viewBox="0 0 695.68 627.5"><defs><style>.cls-1{fill:#f62e53;}</style></defs><g id="Layer_2" data-name="Layer 2"><g id="Layer_1-2" data-name="Layer 1"><path class="cls-1" d="M682.9,486,429.54,47.17c-36.31-62.89-127.09-62.89-163.4,0L12.78,486c-36.31,62.89,9.08,141.5,81.7,141.5H601.2C673.82,627.5,719.21,548.89,682.9,486ZM342.84,497.12a32.82,32.82,0,1,1,32.82-32.82A32.81,32.81,0,0,1,342.84,497.12ZM359.68,390.2a16.08,16.08,0,0,1-32.07-.59L315,163.52a27.2,27.2,0,0,1,16-21.74,38.7,38.7,0,0,1,33.13,0,26.21,26.21,0,0,1,12.4,10,25.92,25.92,0,0,1,4.13,12.31Z"/></g></g></svg>